<svg version="1.1" id="Layer_1" xmlns="http://www.w3.org/2000/svg" xmlns:xlink="http://www.w3.org/1999/xlink" x="0px" y="0px"
	 width="100%" viewBox="0 0 2048 2048" enable-background="new 0 0 2048 2048" xml:space="preserve">
<path fill="#000000" opacity="1.000000" stroke="none" 
	d="
M2049.000000,1313.000000 
	C2049.000000,1558.305298 2049.000000,1803.610718 2049.000000,2048.958008 
	C1366.439331,2048.958008 683.878723,2048.958008 1.000000,2048.958008 
	C1.000000,1804.967407 1.000000,1560.934570 1.330907,1316.155029 
	C1.922374,1315.613647 2.343726,1315.771362 2.420388,1316.030884 
	C5.848743,1327.633057 12.566669,1337.013672 21.486418,1345.055176 
	C33.535099,1355.917480 47.672340,1361.867676 63.758369,1361.909180 
	C142.250092,1362.111816 220.742661,1362.019897 299.234863,1361.958008 
	C304.480286,1361.953857 309.782928,1361.718750 314.960663,1360.938599 
	C340.765930,1357.050659 357.494202,1341.793579 367.664948,1318.324707 
	C368.584595,1320.520996 369.405304,1322.779175 370.462006,1324.921143 
	C371.524231,1327.074097 372.742737,1329.160889 374.027496,1331.191406 
	C386.318390,1350.617065 404.467316,1361.647949 426.923218,1361.732422 
	C568.073975,1362.262939 709.227661,1361.977905 850.380432,1362.028564 
	C869.225342,1362.035278 885.210693,1355.430664 898.388733,1342.077637 
	C912.417725,1327.862183 926.271423,1313.473999 940.285950,1299.244263 
	C950.224792,1289.152710 960.298828,1279.194214 970.330566,1269.194580 
	C971.039429,1268.488037 971.896790,1267.930664 972.999023,1267.054199 
	C972.999023,1277.992920 972.853088,1288.328125 973.074463,1298.655273 
	C973.157349,1302.520386 973.885925,1306.410889 974.681335,1310.214355 
	C977.777710,1325.022095 985.477661,1337.018799 997.105896,1346.629639 
	C1008.714111,1356.223877 1021.999390,1361.873047 1037.015381,1361.908813 
	C1118.340210,1362.102905 1199.665771,1362.005249 1280.991089,1361.971924 
	C1282.765991,1361.971191 1284.534546,1361.466797 1286.316284,1361.320801 
	C1293.791992,1360.707764 1300.920776,1357.629517 1308.831909,1359.817993 
	C1314.874878,1361.489868 1321.420776,1361.904297 1327.744629,1361.915039 
	C1404.903442,1362.047119 1482.062744,1361.933838 1559.221558,1362.052368 
	C1576.359253,1362.078735 1591.655029,1357.798706 1605.069458,1346.583984 
	C1620.147949,1333.978271 1628.630127,1318.179565 1628.880371,1298.673096 
	C1629.314453,1264.848755 1629.000732,1231.014648 1629.000732,1197.184692 
	C1629.000732,1195.472168 1629.000854,1193.759766 1629.000854,1191.405151 
	C1645.877319,1197.355225 1661.921143,1197.616821 1677.999146,1191.255249 
	C1677.999146,1226.314209 1677.912964,1261.142212 1678.088257,1295.968872 
	C1678.115723,1301.450684 1678.870728,1307.028198 1680.066772,1312.387939 
	C1686.538208,1341.384766 1713.718872,1361.762939 1742.063965,1361.881348 
	C1823.221191,1362.220581 1904.380859,1362.054688 1985.539185,1361.883423 
	C1991.126465,1361.871582 1996.931519,1360.865723 2002.256958,1359.148560 
	C2024.885986,1351.852173 2040.206421,1337.044678 2047.100952,1313.971313 
	C2047.241577,1313.500366 2048.345459,1313.317383 2049.000000,1313.000000 
z"/>
<path fill="#000000" opacity="1.000000" stroke="none" 
	d="
M0.999994,734.000000 
	C1.000000,489.694580 1.000000,245.389175 1.000000,1.041877 
	C683.560730,1.041877 1366.121460,1.041877 2049.000000,1.041877 
	C2049.000000,246.365982 2049.000000,491.732086 2048.664062,737.845764 
	C2045.666138,732.662292 2043.531372,726.420471 2040.248413,720.855957 
	C2028.272949,700.558105 2009.879761,689.406555 1986.701172,689.230591 
	C1907.215942,688.627319 1827.723022,688.889709 1748.233765,689.090271 
	C1732.099731,689.130981 1717.769165,694.996704 1706.226562,706.414551 
	C1698.502319,714.055115 1691.357178,722.293396 1684.141479,730.431458 
	C1678.945557,736.291504 1674.135864,742.492188 1669.016113,748.421936 
	C1663.921509,754.322693 1658.654907,760.074951 1653.574219,765.768494 
	C1648.150757,759.771179 1642.815308,753.971008 1637.589966,748.073303 
	C1625.073120,733.945251 1613.069458,719.326233 1599.977051,705.755981 
	C1589.379883,694.771973 1575.399292,689.202515 1560.240845,689.144287 
	C1479.752441,688.835327 1399.262085,688.993591 1318.772461,689.034424 
	C1317.017456,689.035339 1315.269775,689.621033 1313.506714,689.837524 
	C1306.868408,690.652649 1300.445801,693.179199 1293.472656,690.979431 
	C1289.205322,689.633118 1284.520386,689.090515 1280.020752,689.079224 
	C1229.527588,688.952332 1179.033813,689.051636 1128.540405,688.971008 
	C1110.392090,688.942078 1095.017944,695.341064 1082.324463,708.197021 
	C1062.699829,728.072815 1043.122192,747.995178 1023.580566,767.952637 
	C1018.844666,772.789368 1014.366394,777.877319 1009.697998,782.781494 
	C1005.769958,786.907776 1001.738098,790.935303 997.000977,795.773865 
	C997.000977,780.960999 997.136963,767.493774 996.960938,754.030640 
	C996.799622,741.686523 993.734741,729.993164 986.894592,719.672852 
	C973.555542,699.546753 954.757629,689.013733 930.427795,689.010498 
	C766.115540,688.988586 601.803345,688.988037 437.491089,689.041260 
	C431.245972,689.043274 424.972412,689.395081 418.761902,690.053528 
	C405.482117,691.461487 393.750946,696.879944 384.469269,706.306091 
	C377.588104,713.294434 371.966034,721.522583 366.335724,728.512390 
	C363.652557,724.413330 360.598145,719.160767 356.981293,714.329224 
	C345.054993,698.397522 328.781677,689.322876 309.136902,689.201538 
	C229.983429,688.712646 150.825104,689.041870 71.668709,688.952148 
	C60.009365,688.938965 48.775047,689.843994 37.879898,694.851746 
	C22.565729,701.890686 11.632915,712.776001 4.915164,728.137695 
	C3.988323,730.257141 2.323286,732.053894 0.999994,734.000000 
z"/>
<path fill="#FFFEFE" opacity="1.000000" stroke="none" 
	d="
M0.999994,734.468628 
	C2.323286,732.053894 3.988323,730.257141 4.915164,728.137695 
	C11.632915,712.776001 22.565729,701.890686 37.879898,694.851746 
	C48.775047,689.843994 60.009365,688.938965 71.668709,688.952148 
	C150.825104,689.041870 229.983429,688.712646 309.136902,689.201538 
	C328.781677,689.322876 345.054993,698.397522 356.981293,714.329224 
	C360.598145,719.160767 363.652557,724.413330 366.335724,728.512390 
	C371.966034,721.522583 377.588104,713.294434 384.469269,706.306091 
	C393.750946,696.879944 405.482117,691.461487 418.761902,690.053528 
	C424.972412,689.395081 431.245972,689.043274 437.491089,689.041260 
	C601.803345,688.988037 766.115540,688.988586 930.427795,689.010498 
	C954.757629,689.013733 973.555542,699.546753 986.894592,719.672852 
	C993.734741,729.993164 996.799622,741.686523 996.960938,754.030640 
	C997.136963,767.493774 997.000977,780.960999 997.000977,795.773865 
	C1001.738098,790.935303 1005.769958,786.907776 1009.697998,782.781494 
	C1014.366394,777.877319 1018.844666,772.789368 1023.580566,767.952637 
	C1043.122192,747.995178 1062.699829,728.072815 1082.324463,708.197021 
	C1095.017944,695.341064 1110.392090,688.942078 1128.540405,688.971008 
	C1179.033813,689.051636 1229.527588,688.952332 1280.020752,689.079224 
	C1284.520386,689.090515 1289.205322,689.633118 1293.472656,690.979431 
	C1300.445801,693.179199 1306.868408,690.652649 1313.506714,689.837524 
	C1315.269775,689.621033 1317.017456,689.035339 1318.772461,689.034424 
	C1399.262085,688.993591 1479.752441,688.835327 1560.240845,689.144287 
	C1575.399292,689.202515 1589.379883,694.771973 1599.977051,705.755981 
	C1613.069458,719.326233 1625.073120,733.945251 1637.589966,748.073303 
	C1642.815308,753.971008 1648.150757,759.771179 1653.574219,765.768494 
	C1658.654907,760.074951 1663.921509,754.322693 1669.016113,748.421936 
	C1674.135864,742.492188 1678.945557,736.291504 1684.141479,730.431458 
	C1691.357178,722.293396 1698.502319,714.055115 1706.226562,706.414551 
	C1717.769165,694.996704 1732.099731,689.130981 1748.233765,689.090271 
	C1827.723022,688.889709 1907.215942,688.627319 1986.701172,689.230591 
	C2009.879761,689.406555 2028.272949,700.558105 2040.248413,720.855957 
	C2043.531372,726.420471 2045.666138,732.662292 2048.664062,738.296631 
	C2049.000000,929.354248 2049.000000,1120.708496 2049.000000,1312.531372 
	C2048.345459,1313.317383 2047.241577,1313.500366 2047.100952,1313.971313 
	C2040.206421,1337.044678 2024.885986,1351.852173 2002.256958,1359.148560 
	C1996.931519,1360.865723 1991.126465,1361.871582 1985.539185,1361.883423 
	C1904.380859,1362.054688 1823.221191,1362.220581 1742.063965,1361.881348 
	C1713.718872,1361.762939 1686.538208,1341.384766 1680.066772,1312.387939 
	C1678.870728,1307.028198 1678.115723,1301.450684 1678.088257,1295.968872 
	C1677.912964,1261.142212 1677.999146,1226.314209 1677.999146,1191.255249 
	C1661.921143,1197.616821 1645.877319,1197.355225 1629.000854,1191.405151 
	C1629.000854,1193.759766 1629.000732,1195.472168 1629.000732,1197.184692 
	C1629.000732,1231.014648 1629.314453,1264.848755 1628.880371,1298.673096 
	C1628.630127,1318.179565 1620.147949,1333.978271 1605.069458,1346.583984 
	C1591.655029,1357.798706 1576.359253,1362.078735 1559.221558,1362.052368 
	C1482.062744,1361.933838 1404.903442,1362.047119 1327.744629,1361.915039 
	C1321.420776,1361.904297 1314.874878,1361.489868 1308.831909,1359.817993 
	C1300.920776,1357.629517 1293.791992,1360.707764 1286.316284,1361.320801 
	C1284.534546,1361.466797 1282.765991,1361.971191 1280.991089,1361.971924 
	C1199.665771,1362.005249 1118.340210,1362.102905 1037.015381,1361.908813 
	C1021.999390,1361.873047 1008.714111,1356.223877 997.105896,1346.629639 
	C985.477661,1337.018799 977.777710,1325.022095 974.681335,1310.214355 
	C973.885925,1306.410889 973.157349,1302.520386 973.074463,1298.655273 
	C972.853088,1288.328125 972.999023,1277.992920 972.999023,1267.054199 
	C971.896790,1267.930664 971.039429,1268.488037 970.330566,1269.194580 
	C960.298828,1279.194214 950.224792,1289.152710 940.285950,1299.244263 
	C926.271423,1313.473999 912.417725,1327.862183 898.388733,1342.077637 
	C885.210693,1355.430664 869.225342,1362.035278 850.380432,1362.028564 
	C709.227661,1361.977905 568.073975,1362.262939 426.923218,1361.732422 
	C404.467316,1361.647949 386.318390,1350.617065 374.027496,1331.191406 
	C372.742737,1329.160889 371.524231,1327.074097 370.462006,1324.921143 
	C369.405304,1322.779175 368.584595,1320.520996 367.664948,1318.324707 
	C357.494202,1341.793579 340.765930,1357.050659 314.960663,1360.938599 
	C309.782928,1361.718750 304.480286,1361.953857 299.234863,1361.958008 
	C220.742661,1362.019897 142.250092,1362.111816 63.758369,1361.909180 
	C47.672340,1361.867676 33.535099,1355.917480 21.486418,1345.055176 
	C12.566669,1337.013672 5.848743,1327.633057 2.420388,1316.030884 
	C2.343726,1315.771362 1.922374,1315.613647 1.330907,1315.704102 
	C1.000000,1122.312500 1.000000,928.624878 0.999994,734.468628 
M1890.500000,755.165283 
	C1845.507446,755.165283 1800.514771,755.129211 1755.522705,755.276367 
	C1753.371826,755.283386 1750.549805,756.315491 1749.178955,757.872559 
	C1725.840942,784.379761 1702.689575,811.051208 1679.481812,837.673157 
	C1670.883179,847.536865 1662.245117,857.366211 1653.475952,867.381531 
	C1652.129639,865.895569 1651.109497,864.807922 1650.130981,863.683960 
	C1619.725708,828.750305 1589.296143,793.837585 1558.980225,758.826477 
	C1556.715698,756.211121 1554.502930,755.079285 1550.979858,755.084412 
	C1476.991699,755.191406 1403.003418,755.165283 1329.015137,755.165283 
	C1327.401733,755.165283 1325.788330,755.165283 1324.173950,755.165283 
	C1324.173950,935.587769 1324.173950,1115.437744 1324.173950,1295.220337 
	C1403.844116,1295.220337 1483.116333,1295.220337 1562.915894,1295.220337 
	C1562.915894,1205.449951 1562.915894,1115.935547 1562.915894,1025.131348 
	C1593.601929,1060.501587 1623.423584,1094.875610 1653.443115,1129.477539 
	C1683.601929,1094.716431 1713.409424,1060.360229 1744.193115,1024.878906 
	C1744.193115,1116.064575 1744.193115,1205.633057 1744.193115,1295.184570 
	C1824.021606,1295.184570 1903.433838,1295.184570 1983.066406,1295.184570 
	C1983.066406,1115.163818 1983.066406,935.436462 1983.066406,755.165283 
	C1952.392822,755.165283 1921.946411,755.165283 1890.500000,755.165283 
M836.500000,755.163879 
	C788.250305,755.163879 740.000671,755.163879 691.694153,755.163879 
	C691.694153,935.598328 691.694153,1115.323608 691.694153,1295.479980 
	C693.850891,1295.479980 695.657227,1295.479980 697.463501,1295.479980 
	C746.795471,1295.479980 796.127625,1295.432495 845.459229,1295.568604 
	C849.479248,1295.579834 852.203064,1294.335205 854.982422,1291.504761 
	C914.649780,1230.739746 974.408569,1170.064697 1034.158691,1109.380981 
	C1035.470703,1108.048584 1036.887451,1106.819092 1039.412354,1104.460815 
	C1039.412354,1169.089600 1039.412354,1232.090210 1039.412354,1295.057617 
	C1119.477783,1295.057617 1198.849121,1295.057617 1278.199951,1295.057617 
	C1278.199951,1114.894165 1278.199951,935.153503 1278.199951,755.163879 
	C1276.167847,755.163879 1274.510132,755.163940 1272.852417,755.163940 
	C1226.687012,755.163940 1180.521484,755.209167 1134.356445,755.077393 
	C1130.687866,755.066895 1128.254272,756.199829 1125.737793,758.786682 
	C1062.637329,823.650940 999.454163,888.434937 936.279724,953.227356 
	C934.843567,954.700195 933.338745,956.106140 931.865967,957.543274 
	C931.462097,957.364441 931.058167,957.185547 930.654297,957.006653 
	C930.654297,889.842102 930.654297,822.677490 930.654297,755.163879 
	C899.112915,755.163879 868.306458,755.163879 836.500000,755.163879 
M683.480835,1295.478394 
	C684.924683,1295.414917 686.368591,1295.351562 688.326416,1295.265503 
	C687.885376,1290.271851 687.463440,1285.674927 687.075684,1281.074951 
	C683.889343,1243.274414 676.853882,1206.271851 663.936218,1170.516846 
	C646.777161,1123.022461 620.521179,1081.519775 582.378235,1048.025269 
	C572.914368,1039.714600 562.843445,1032.095459 552.804749,1023.958496 
	C554.182617,1023.013184 555.722717,1022.068970 557.139465,1020.966370 
	C566.849548,1013.409058 577.169006,1006.496765 586.114319,998.119080 
	C621.442383,965.032837 639.730164,922.956787 647.871582,876.127380 
	C652.059204,852.040222 654.478210,827.650391 658.087952,803.455811 
	C660.052490,790.288696 662.539734,777.079529 670.662109,765.993225 
	C673.212097,762.512634 673.507507,759.258240 672.712891,755.165100 
	C670.627319,755.165100 668.816406,755.165039 667.005554,755.165039 
	C591.840942,755.165039 516.676331,755.165039 441.511688,755.165039 
	C427.473572,755.165039 426.587036,754.885315 422.318085,768.411865 
	C417.584320,783.411316 414.332458,798.915649 411.082581,814.336548 
	C407.349579,832.049683 405.698730,850.308777 400.697662,867.624390 
	C391.437927,899.684692 371.494507,922.501404 338.166382,931.571777 
	C327.407104,934.500061 316.452576,936.010864 304.758850,935.667725 
	C304.758850,875.294922 304.758850,815.394165 304.758850,755.470947 
	C224.839355,755.470947 145.423111,755.470947 65.927521,755.470947 
	C65.927521,935.525513 65.927521,1115.274048 65.927521,1295.226318 
	C145.637466,1295.226318 225.046417,1295.226318 305.076996,1295.226318 
	C305.076996,1229.439209 305.076996,1163.901123 305.076996,1098.318848 
	C346.005188,1099.989380 375.748871,1119.068237 396.108307,1153.377197 
	C415.209320,1185.565308 422.605164,1221.287231 426.925262,1257.846313 
	C428.386322,1270.210449 429.212555,1282.649780 430.367065,1295.478516 
	C514.556458,1295.478516 598.518372,1295.478516 683.480835,1295.478394 
z"/>
<path fill="#ED0909" opacity="1.000000" stroke="none" 
	d="
M1891.000000,755.165283 
	C1921.946411,755.165283 1952.392822,755.165283 1983.066406,755.165283 
	C1983.066406,935.436462 1983.066406,1115.163818 1983.066406,1295.184570 
	C1903.433838,1295.184570 1824.021606,1295.184570 1744.193115,1295.184570 
	C1744.193115,1205.633057 1744.193115,1116.064575 1744.193115,1024.878906 
	C1713.409424,1060.360229 1683.601929,1094.716431 1653.443115,1129.477539 
	C1623.423584,1094.875610 1593.601929,1060.501587 1562.915894,1025.131348 
	C1562.915894,1115.935547 1562.915894,1205.449951 1562.915894,1295.220337 
	C1483.116333,1295.220337 1403.844116,1295.220337 1324.173950,1295.220337 
	C1324.173950,1115.437744 1324.173950,935.587769 1324.173950,755.165283 
	C1325.788330,755.165283 1327.401733,755.165283 1329.015137,755.165283 
	C1403.003418,755.165283 1476.991699,755.191406 1550.979858,755.084412 
	C1554.502930,755.079285 1556.715698,756.211121 1558.980225,758.826477 
	C1589.296143,793.837585 1619.725708,828.750305 1650.130981,863.683960 
	C1651.109497,864.807922 1652.129639,865.895569 1653.475952,867.381531 
	C1662.245117,857.366211 1670.883179,847.536865 1679.481812,837.673157 
	C1702.689575,811.051208 1725.840942,784.379761 1749.178955,757.872559 
	C1750.549805,756.315491 1753.371826,755.283386 1755.522705,755.276367 
	C1800.514771,755.129211 1845.507446,755.165283 1891.000000,755.165283 
z"/>
<path fill="#ED0A0A" opacity="1.000000" stroke="none" 
	d="
M837.000000,755.163879 
	C868.306458,755.163879 899.112915,755.163879 930.654297,755.163879 
	C930.654297,822.677490 930.654297,889.842102 930.654297,957.006653 
	C931.058167,957.185547 931.462097,957.364441 931.865967,957.543274 
	C933.338745,956.106140 934.843567,954.700195 936.279724,953.227356 
	C999.454163,888.434937 1062.637329,823.650940 1125.737793,758.786682 
	C1128.254272,756.199829 1130.687866,755.066895 1134.356445,755.077393 
	C1180.521484,755.209167 1226.687012,755.163940 1272.852417,755.163940 
	C1274.510132,755.163940 1276.167847,755.163879 1278.199951,755.163879 
	C1278.199951,935.153503 1278.199951,1114.894165 1278.199951,1295.057617 
	C1198.849121,1295.057617 1119.477783,1295.057617 1039.412354,1295.057617 
	C1039.412354,1232.090210 1039.412354,1169.089600 1039.412354,1104.460815 
	C1036.887451,1106.819092 1035.470703,1108.048584 1034.158691,1109.380981 
	C974.408569,1170.064697 914.649780,1230.739746 854.982422,1291.504761 
	C852.203064,1294.335205 849.479248,1295.579834 845.459229,1295.568604 
	C796.127625,1295.432495 746.795471,1295.479980 697.463501,1295.479980 
	C695.657227,1295.479980 693.850891,1295.479980 691.694153,1295.479980 
	C691.694153,1115.323608 691.694153,935.598328 691.694153,755.163879 
	C740.000671,755.163879 788.250305,755.163879 837.000000,755.163879 
z"/>
<path fill="#ED0909" opacity="1.000000" stroke="none" 
	d="
M682.980530,1295.478516 
	C598.518372,1295.478516 514.556458,1295.478516 430.367065,1295.478516 
	C429.212555,1282.649780 428.386322,1270.210449 426.925262,1257.846313 
	C422.605164,1221.287231 415.209320,1185.565308 396.108307,1153.377197 
	C375.748871,1119.068237 346.005188,1099.989380 305.076996,1098.318848 
	C305.076996,1163.901123 305.076996,1229.439209 305.076996,1295.226318 
	C225.046417,1295.226318 145.637466,1295.226318 65.927521,1295.226318 
	C65.927521,1115.274048 65.927521,935.525513 65.927521,755.470947 
	C145.423111,755.470947 224.839355,755.470947 304.758850,755.470947 
	C304.758850,815.394165 304.758850,875.294922 304.758850,935.667725 
	C316.452576,936.010864 327.407104,934.500061 338.166382,931.571777 
	C371.494507,922.501404 391.437927,899.684692 400.697662,867.624390 
	C405.698730,850.308777 407.349579,832.049683 411.082581,814.336548 
	C414.332458,798.915649 417.584320,783.411316 422.318085,768.411865 
	C426.587036,754.885315 427.473572,755.165039 441.511688,755.165039 
	C516.676331,755.165039 591.840942,755.165039 667.005554,755.165039 
	C668.816406,755.165039 670.627319,755.165100 672.712891,755.165100 
	C673.507507,759.258240 673.212097,762.512634 670.662109,765.993225 
	C662.539734,777.079529 660.052490,790.288696 658.087952,803.455811 
	C654.478210,827.650391 652.059204,852.040222 647.871582,876.127380 
	C639.730164,922.956787 621.442383,965.032837 586.114319,998.119080 
	C577.169006,1006.496765 566.849548,1013.409058 557.139465,1020.966370 
	C555.722717,1022.068970 554.182617,1023.013184 552.804749,1023.958496 
	C562.843445,1032.095459 572.914368,1039.714600 582.378235,1048.025269 
	C620.521179,1081.519775 646.777161,1123.022461 663.936218,1170.516846 
	C676.853882,1206.271851 683.889343,1243.274414 687.075684,1281.074951 
	C687.463440,1285.674927 687.885376,1290.271851 688.326416,1295.265503 
	C686.368591,1295.351562 684.924683,1295.414917 682.980530,1295.478516 
z"/>
</svg>