<?xml version="1.0" encoding="UTF-8"?>
<svg id="Layer_2" xmlns="http://www.w3.org/2000/svg" viewBox="0 0 612 201.18">
  <defs>
    <style>
      .cls-1 {
        fill: #fffefe;
      }

      .cls-2 {
        fill: #ed0909;
      }

      .cls-3 {
        fill: #ed0a0a;
      }
    </style>
  </defs>
  <g id="Layer_1-2" data-name="Layer_1">
    <path class="cls-1" d="M0,13.63c.4-.72.89-1.26,1.17-1.89C3.18,7.15,6.44,3.89,11.02,1.79,14.28.29,17.63.02,21.12.03c23.65.03,47.31-.07,70.96.07,5.87.04,10.73,2.75,14.3,7.51,1.08,1.44,1.99,3.01,2.8,4.24,1.68-2.09,3.36-4.55,5.42-6.64,2.77-2.82,6.28-4.44,10.25-4.86,1.86-.2,3.73-.3,5.6-.3,49.1-.02,98.2-.02,147.3,0,7.27,0,12.89,3.15,16.87,9.16,2.04,3.08,2.96,6.58,3.01,10.27.05,4.02.01,8.05.01,12.47,1.42-1.45,2.62-2.65,3.79-3.88,1.4-1.47,2.73-2.99,4.15-4.43,5.84-5.96,11.69-11.92,17.55-17.86,3.79-3.84,8.39-5.75,13.81-5.75,15.09.02,30.18,0,45.27.03,1.34,0,2.74.17,4.02.57,2.08.66,4-.1,5.99-.34.53-.06,1.05-.24,1.57-.24,24.05-.01,48.11-.06,72.16.03,4.53.02,8.71,1.68,11.87,4.96,3.91,4.06,7.5,8.42,11.24,12.65,1.56,1.76,3.16,3.5,4.78,5.29,1.52-1.7,3.09-3.42,4.61-5.18,1.53-1.77,2.97-3.62,4.52-5.38,2.16-2.43,4.29-4.89,6.6-7.18,3.45-3.41,7.73-5.16,12.55-5.18,23.75-.06,47.51-.14,71.26.04,6.93.05,12.42,3.38,16,9.45.98,1.66,1.62,3.53,2.51,5.21.1,57.09.1,114.28.1,171.6-.2.23-.53.29-.57.43-2.06,6.89-6.64,11.32-13.4,13.5-1.59.51-3.33.81-5,.82-24.25.05-48.51.1-72.76,0-8.47-.04-16.59-6.12-18.53-14.79-.36-1.6-.58-3.27-.59-4.91-.05-10.41-.03-20.81-.03-31.29-4.8,1.9-9.6,1.82-14.64.04,0,.7,0,1.22,0,1.73,0,10.11.09,20.22-.04,30.33-.07,5.83-2.61,10.55-7.12,14.32-4.01,3.35-8.58,4.63-13.7,4.62-23.06-.04-46.11,0-69.17-.04-1.89,0-3.85-.13-5.65-.63-2.36-.65-4.49.27-6.73.45-.53.04-1.06.19-1.59.19-24.3,0-48.6.04-72.91-.02-4.49-.01-8.46-1.7-11.93-4.57-3.47-2.87-5.78-6.46-6.7-10.88-.24-1.14-.46-2.3-.48-3.45-.07-3.09-.02-6.17-.02-9.44-.33.26-.59.43-.8.64-3,2.99-6.01,5.96-8.98,8.98-4.19,4.25-8.33,8.55-12.52,12.8-3.94,3.99-8.71,5.96-14.35,5.96-42.18-.02-84.36.07-126.54-.09-6.71-.03-12.13-3.32-15.81-9.13-.38-.61-.75-1.23-1.07-1.87-.32-.64-.56-1.31-.84-1.97-3.04,7.01-8.04,11.57-15.75,12.73-1.55.23-3.13.3-4.7.3-23.46.02-46.91.05-70.37-.01-4.81-.01-9.03-1.79-12.63-5.04-2.67-2.4-4.67-5.21-5.7-8.67-.02-.08-.15-.12-.33-.1C0,129.53,0,71.65,0,13.63M564.64,19.81c-13.45,0-26.89-.01-40.34.03-.64,0-1.49.31-1.9.78-6.97,7.92-13.89,15.89-20.83,23.85-2.57,2.95-5.15,5.88-7.77,8.88-.4-.44-.71-.77-1-1.1-9.09-10.44-18.18-20.87-27.24-31.33-.68-.78-1.34-1.12-2.39-1.12-22.11.03-44.22.02-66.33.02h-1.45v161.38h71.34v-80.71c9.17,10.57,18.08,20.84,27.05,31.18,9.01-10.39,17.92-20.65,27.12-31.26v80.77h71.38V19.81h-27.66M249.67,19.81h-43.27v161.46h1.72c14.74,0,29.48-.01,44.23.03,1.2,0,2.02-.37,2.85-1.21,17.83-18.16,35.69-36.29,53.54-54.42.39-.4.82-.77,1.57-1.47v56.96h71.36V19.81c-.61,0-1.1,0-1.6,0-13.8,0-27.59.01-41.39-.03-1.1,0-1.82.34-2.58,1.11-18.86,19.38-37.74,38.74-56.62,58.1-.43.44-.88.86-1.32,1.29-.12-.05-.24-.11-.36-.16V19.81h-28.14M203.94,181.28c.43-.02.86-.04,1.45-.06-.13-1.49-.26-2.87-.37-4.24-.95-11.3-3.05-22.35-6.91-33.04-5.13-14.19-12.97-26.59-24.37-36.6-2.83-2.48-5.84-4.76-8.84-7.19.41-.28.87-.56,1.3-.89,2.9-2.26,5.99-4.32,8.66-6.83,10.56-9.89,16.02-22.46,18.45-36.45,1.25-7.2,1.97-14.49,3.05-21.72.59-3.93,1.33-7.88,3.76-11.19.76-1.04.85-2.01.61-3.24-.62,0-1.16,0-1.71,0h-67.38c-4.19,0-4.46-.08-5.74,3.96-1.41,4.48-2.39,9.12-3.36,13.72-1.12,5.29-1.61,10.75-3.1,15.92-2.77,9.58-8.73,16.4-18.69,19.11-3.22.88-6.49,1.33-9.98,1.22V19.91H19.4v161.29h71.46v-58.84c12.23.5,21.12,6.2,27.2,16.45,5.71,9.62,7.92,20.29,9.21,31.22.44,3.69.68,7.41,1.03,11.25,25.16,0,50.25,0,75.64,0Z"/>
    <path class="cls-2" d="M564.79,19.81h27.51v161.37h-71.38v-80.77c-9.2,10.6-18.11,20.87-27.12,31.26-8.97-10.34-17.88-20.61-27.05-31.18v80.71h-71.34V19.81h1.45c22.11,0,44.22,0,66.33-.02,1.05,0,1.71.34,2.39,1.12,9.06,10.46,18.15,20.9,27.24,31.33.29.34.6.66,1,1.1,2.62-2.99,5.2-5.93,7.77-8.88,6.94-7.96,13.85-15.93,20.83-23.85.41-.47,1.25-.77,1.9-.78,13.44-.04,26.89-.03,40.48-.03Z"/>
    <path class="cls-3" d="M249.82,19.81h27.99v60.32c.12.05.24.11.36.16.44-.43.89-.85,1.32-1.29,18.88-19.36,37.76-38.72,56.62-58.1.75-.77,1.48-1.11,2.58-1.11,13.8.04,27.59.03,41.39.03.5,0,.99,0,1.6,0v161.34h-71.36v-56.96c-.75.7-1.18,1.07-1.57,1.47-17.86,18.13-35.71,36.27-53.54,54.42-.83.85-1.64,1.22-2.85,1.21-14.74-.04-29.48-.03-44.23-.03h-1.72V19.81h43.42Z"/>
    <path class="cls-2" d="M203.79,181.28h-75.49c-.35-3.83-.59-7.55-1.03-11.25-1.29-10.92-3.5-21.6-9.21-31.22-6.08-10.25-14.97-15.95-27.2-16.45v58.84H19.4V19.91h71.37v53.85c3.49.1,6.77-.35,9.98-1.22,9.96-2.71,15.92-9.53,18.69-19.11,1.49-5.17,1.99-10.63,3.1-15.92.97-4.61,1.94-9.24,3.36-13.72,1.28-4.04,1.54-3.96,5.74-3.96h67.38c.54,0,1.08,0,1.71,0,.24,1.22.15,2.2-.61,3.24-2.43,3.31-3.17,7.26-3.76,11.19-1.08,7.23-1.8,14.52-3.05,21.72-2.43,13.99-7.9,26.57-18.45,36.45-2.67,2.5-5.76,4.57-8.66,6.83-.42.33-.88.61-1.3.89,3,2.43,6.01,4.71,8.84,7.19,11.4,10.01,19.24,22.41,24.37,36.6,3.86,10.68,5.96,21.74,6.91,33.04.12,1.37.24,2.75.37,4.24-.59.03-1.02.04-1.6.06Z"/>
  </g>
</svg>